<!DOCTYPE svg PUBLIC "-//W3C//DTD SVG 1.1//EN" "http://www.w3.org/Graphics/SVG/1.1/DTD/svg11.dtd">
<!-- Uploaded to: SVG Repo, www.svgrepo.com, Transformed by: SVG Repo Mixer Tools -->
<svg version="1.1" id="Layer_1" xmlns="http://www.w3.org/2000/svg" xmlns:xlink="http://www.w3.org/1999/xlink" viewBox="0 0 496.2 496.2" xml:space="preserve" width="800px" height="800px" fill="#000000">
<g id="SVGRepo_bgCarrier" stroke-width="0"/>
<g id="SVGRepo_tracerCarrier" stroke-linecap="round" stroke-linejoin="round"/>
<g id="SVGRepo_iconCarrier"> <path style="fill:#A3D5E0;" d="M496.2,248.1C496.2,111.1,385.1,0,248.1,0S0,111.1,0,248.1s111.1,248.1,248.1,248.1 S496.2,385.1,496.2,248.1z"/> <g> <rect x="170" y="91" style="fill:#967247;" width="156.2" height="13.8"/> <rect x="170" y="102.2" style="fill:#967247;" width="9.4" height="328.2"/> <rect x="316.8" y="102.2" style="fill:#967247;" width="9.4" height="328.2"/> </g> <polygon style="fill:#AD8355;" points="326.2,91 170,91 182.8,65.8 313.6,65.8 "/> <rect x="179.4" y="104.8" style="fill:#755939;" width="137.5" height="325.7"/> <polygon style="fill:#AD8355;" points="316.8,423.5 179.4,423.5 190.2,401.3 305.7,401.3 "/> <rect x="190.1" y="104.7" style="fill:#513C27;" width="115.7" height="296.4"/> <rect x="170" y="423.5" style="fill:#967247;" width="156.2" height="6.9"/> <polygon style="fill:#AD8355;" points="316.8,285.2 179.4,285.2 190.2,263 305.7,263 "/> <rect x="170" y="285.3" style="fill:#967247;" width="156.2" height="6.9"/> <polygon style="fill:#AD8355;" points="316.8,331.7 179.4,331.7 190.2,309.5 305.7,309.5 "/> <rect x="170" y="331.8" style="fill:#967247;" width="156.2" height="6.9"/> <polygon style="fill:#AD8355;" points="316.8,378.2 179.4,378.2 190.2,356 305.7,356 "/> <rect x="170" y="378.3" style="fill:#967247;" width="156.2" height="6.9"/> <polygon style="fill:#AD8355;" points="316.8,238.7 179.4,238.7 190.2,216.5 305.7,216.5 "/> <rect x="170" y="238.8" style="fill:#967247;" width="156.2" height="6.9"/> <polygon style="fill:#AD8355;" points="316.8,192.2 179.4,192.2 190.2,170 305.7,170 "/> <rect x="170" y="192.3" style="fill:#967247;" width="156.2" height="6.9"/> <polygon style="fill:#AD8355;" points="316.8,145.7 179.4,145.7 190.2,123.5 305.7,123.5 "/> <rect x="170" y="145.8" style="fill:#967247;" width="156.2" height="6.9"/> <rect x="184.4" y="199.2" style="fill:#48A1AF;" width="11.2" height="38.3"/> <polygon style="fill:#38848C;" points="195.6,237.4 205.6,216.6 205.6,199.2 195.6,199.2 "/> <rect x="302.9" y="245.7" style="fill:#48A1AF;" width="11.2" height="38.3"/> <polygon style="fill:#38848C;" points="302.9,283.9 292.9,263.1 292.9,245.7 302.9,245.7 "/> <rect x="198.7" y="199.2" style="fill:#D3AF18;" width="11.2" height="38.3"/> <polygon style="fill:#BF9E13;" points="210,237.4 214.9,216.6 214.9,199.2 210,199.2 "/> <rect x="286.7" y="104.8" style="fill:#D3AF18;" width="11.2" height="38.3"/> <polygon style="fill:#BF9E13;" points="286.7,143 281.7,122.2 281.7,104.8 286.7,104.8 "/> <rect x="221.7" y="199.2" style="fill:#EA4949;" width="11.2" height="38.3"/> <polygon style="fill:#D13D3D;" points="233,237.4 236.3,216.6 236.3,199.2 233,199.2 "/> <rect x="271.5" y="292.2" style="fill:#EA4949;" width="11.2" height="38.3"/> <polygon style="fill:#D13D3D;" points="271.5,330.4 268.2,309.6 268.2,292.2 271.5,292.2 "/> <g> <rect x="242.6" y="199.2" style="fill:#D3AF18;" width="11.2" height="38.3"/> <rect x="198.7" y="338.7" style="fill:#D3AF18;" width="11.2" height="38.3"/> </g> <polygon style="fill:#BF9E13;" points="210,376.9 214.9,356.1 214.9,338.7 210,338.7 "/> <rect x="242.6" y="338.7" style="fill:#48A1AF;" width="11.2" height="38.3"/> </g>
</svg>